<svg xmlns="http://www.w3.org/2000/svg" xmlns:xlink="http://www.w3.org/1999/xlink" version="1.1" width="629.884" height="170.08" viewBox="0 0 629.884 170.08">
<defs>
<clipPath id="clip_0">
<path transform="matrix(1,0,0,-1,0,170.08)" d="M0 170.08H629.884V0H0Z"/>
</clipPath>
</defs>
<g id="layer_1" data-name="Ebene 1">
<g clip-path="url(#clip_0)">
<path transform="matrix(1,0,0,-1,121.1597,72.199108)" d="M0 0-25.275 25.284C-31.029 30.969-40.255 31.137-46.185 25.798L-15.461-4.898C-12.487-7.875-7.726-7.758-4.769-4.792Z" fill="#21409a"/>
<path transform="matrix(1,0,0,-1,95.3569,123.6747)" d="M0 0-29.178 29.187C-32.148 32.161-36.915 32.04-39.875 29.074L-44.637 24.291-20.882 .488C-15.128-5.176-5.927-5.339 0 0" fill="#21409a"/>
<path transform="matrix(1,0,0,-1,108.3481,85.113208)" d="M0 0-36.061 36.017-46.241 25.782-15.728-4.69C-12.784-7.644-7.846-7.874-4.906-4.939Z" fill="#21409a"/>
<path transform="matrix(1,0,0,-1,95.4878,98.038)" d="M0 0-36.059 36.019-46.237 25.78-15.72-4.692C-12.783-7.645-7.849-7.874-4.903-4.934Z" fill="#21409a"/>
<path transform="matrix(1,0,0,-1,46.563,74.947208)" d="M0 0C-5.314-5.968-5.492-15.371 1.652-21.96L11.813-11.802Z" fill="#21409a"/>
<path transform="matrix(1,0,0,-1,123.8755,95.256809)" d="M0 0C5.158 5.793 5.152 14.629-.011 20.384L-35.924-15.711-25.724-25.892Z" fill="#21409a"/>
<path transform="matrix(1,0,0,-1,188.0356,100.58)" d="M0 0C0-2.639-.725-4.709-2.213-6.326-3.857-8.104-6.261-9.119-8.806-9.119-11.344-9.119-13.748-8.104-15.399-6.328-16.891-4.705-17.615-2.637-17.615 0V12.58H-15.101V-.154C-15.101-2.176-14.648-3.58-13.632-4.709-12.445-6.031-10.731-6.76-8.806-6.76-6.878-6.76-5.165-6.031-3.983-4.709-2.968-3.58-2.515-2.176-2.515-.154V12.58H0Z" fill="#231f20"/>
<path transform="matrix(1,0,0,-1,204.3462,97.414)" d="M0 0C-1.242 1.584-3.113 2.492-5.132 2.492-7.394 2.492-8.836 1.344-9.352 .85L-9.881 .332V2.178H-12.149V-11.979H-9.79L-9.798-1.977C-9.104-1.141-7.532 .293-5.226 .293-3.93 .293-2.695-.293-1.923-1.275-1.432-1.883-.978-2.744-.978-4.902V-11.979H1.38V-5.055C1.38-2.742 .967-1.229 0 0" fill="#231f20"/>
<path transform="matrix(1,0,0,-1,0,170.08)" d="M212.873 60.695H210.516V74.851H212.873Z" fill="#231f20"/>
<path transform="matrix(1,0,0,-1,211.6733,87.9999)" d="M0 0C-.914 0-1.63-.729-1.63-1.662-1.63-2.58-.914-3.299 0-3.299 .937-3.299 1.673-2.58 1.673-1.662 1.673-.746 .922 0 0 0" fill="#231f20"/>
<path transform="matrix(1,0,0,-1,224.2388,109.384708)" d="M0 0H-1.65L-7.809 14.156H-5.402L-.836 3.613 3.747 14.156H6.138Z" fill="#231f20"/>
<path transform="matrix(1,0,0,-1,234.6675,100.738208)" d="M0 0 .121 .406C.644 2.426 2.474 3.84 4.572 3.84 6.507 3.84 8.317 2.357 8.781 .391L8.864 0ZM11.274-1.572C11.274 .469 10.59 2.348 9.347 3.715 8.095 5.074 6.365 5.82 4.48 5.82 .486 5.82-2.413 2.713-2.413-1.572-2.413-5.785 .737-8.961 4.916-8.961 8.235-8.961 10.069-7.277 10.714-6.537L9.205-5.104C8.375-5.973 7.136-6.98 4.95-6.98 3.627-6.98 2.38-6.488 1.437-5.596 .493-4.701-.085-3.568-.164-2.287L-.172-1.885H11.264C11.274-1.75 11.274-1.648 11.274-1.572" fill="#231f20"/>
<path transform="matrix(1,0,0,-1,257.2104,94.9218)" d="M0 0C-2.09 0-3.529-.967-4.181-1.873L-4.75-2.67V-.311H-7.019V-14.467H-4.62V-4.852C-3.723-3.287-1.966-2.195-.349-2.195-.074-2.195 .341-2.25 .542-2.283L.803-.041C.59-.025 .147 0 0 0" fill="#231f20"/>
<path transform="matrix(1,0,0,-1,276.7124,87.9999)" d="M0 0C-.916 0-1.634-.729-1.634-1.662-1.634-2.58-.916-3.299 0-3.299 .936-3.299 1.667-2.58 1.667-1.662 1.667-.746 .92 0 0 0" fill="#231f20"/>
<path transform="matrix(1,0,0,-1,0,170.08)" d="M277.906 60.691H275.55003V74.847H277.906Z" fill="#231f20"/>
<path transform="matrix(1,0,0,-1,287.854,95.2323)" d="M0 0H4.722V-2.045H0V-9.277C0-10.168 .087-10.865 .511-11.367 .956-11.906 1.876-12.268 2.799-12.268 3.159-12.268 3.75-12.225 4.196-12.145L4.67-14.252C4.107-14.387 3.375-14.467 2.708-14.467 1.04-14.467-.288-13.922-1.239-12.844-1.991-12.016-2.357-10.801-2.357-9.127V-2.045H-6.131V0H-2.357V4.092H0Z" fill="#231f20"/>
<path transform="matrix(1,0,0,-1,300.2886,116.9433)" d="M0 0H-2.474L1.376 8.787-4.802 21.711H-2.287L2.553 11.518 6.986 21.711H9.438Z" fill="#231f20"/>
<path transform="matrix(1,0,0,-1,325.4351,107.507709)" d="M0 0C-2.845 0-4.989 2.232-4.989 5.195-4.989 8.16-2.845 10.398 0 10.398 2.841 10.398 4.981 8.16 4.981 5.195 4.981 2.232 2.841 0 0 0M5.219 10.463C3.884 11.818 2.028 12.563 0 12.563-2.025 12.563-3.883 11.818-5.229 10.463-6.574 9.105-7.315 7.236-7.315 5.195-7.315 3.162-6.574 1.293-5.229-.072-3.88-1.426-2.021-2.172 0-2.172 2.028-2.172 3.882-1.426 5.219-.072 6.566 1.283 7.307 3.152 7.307 5.195 7.307 7.246 6.566 9.117 5.219 10.463" fill="#231f20"/>
<path transform="matrix(1,0,0,-1,340.9751,95.2323)" d="M0 0V1.668C0 3.111 .177 3.904 .634 4.5 1.169 5.205 2.157 5.662 3.147 5.662 3.421 5.662 3.737 5.639 3.996 5.598L4.489 7.732C4.096 7.812 3.566 7.865 3.115 7.865 1.218 7.865-.454 7.02-1.469 5.547-2.092 4.662-2.357 3.475-2.357 1.574V0H-5.817V-2.045H-2.357V-14.156H0V-2.045H4.558V0Z" fill="#231f20"/>
<path transform="matrix(1,0,0,-1,368.4292,101.363208)" d="M0 0-3.875 9.311-7.743 0ZM5.881-8.025H3.288L.959-2.359-8.752-2.383-11.039-8.025H-13.609L-4.768 13.363H-2.996Z" fill="#231f20"/>
<path transform="matrix(1,0,0,-1,403.0503,107.5058)" d="M0 0C-1.661 0-3.276 .84-4.319 2.248V8.129C-3.244 9.545-1.576 10.398 .16 10.398 3.059 10.398 5.242 8.162 5.242 5.197 5.242 2.281 2.939 0 0 0M6.546 9.023C5.919 10.113 5.013 11.027 3.924 11.672 2.936 12.256 1.744 12.564 .479 12.564-1.226 12.564-2.708 12.035-3.928 10.988L-4.485 10.506V12.256H-6.704V-9.408H-4.39V-.154L-3.83-.656C-2.663-1.66-1.235-2.172 .414-2.172 1.653-2.172 2.977-1.824 3.953-1.242 6.214 .094 7.563 2.5 7.563 5.197 7.563 6.553 7.212 7.879 6.546 9.023" fill="#231f20"/>
<path transform="matrix(1,0,0,-1,385.022,107.507709)" d="M0 0C-1.661 0-3.276 .84-4.319 2.246V8.125C-3.244 9.543-1.576 10.398 .161 10.398 3.059 10.398 5.242 8.16 5.242 5.195 5.242 2.281 2.939 0 0 0M6.546 9.023C5.919 10.111 5.013 11.025 3.924 11.67 2.936 12.256 1.744 12.563 .479 12.563-1.226 12.563-2.708 12.033-3.928 10.988L-4.485 10.502V12.256H-6.705V-9.408H-4.39V-.156L-3.83-.656C-2.663-1.662-1.235-2.172 .415-2.172 1.653-2.172 2.977-1.826 3.953-1.244 6.214 .092 7.563 2.5 7.563 5.195 7.563 6.553 7.212 7.877 6.546 9.023" fill="#231f20"/>
<path transform="matrix(1,0,0,-1,0,170.08)" d="M416.745 60.715H414.387V82.423999H416.745Z" fill="#231f20"/>
<path transform="matrix(1,0,0,-1,422.6021,87.9745)" d="M0 0C-.916 0-1.633-.73-1.633-1.664-1.633-2.58-.916-3.299 0-3.299 .936-3.299 1.668-2.58 1.668-1.664 1.668-.746 .92 0 0 0" fill="#231f20"/>
<path transform="matrix(1,0,0,-1,0,170.08)" d="M423.8 60.715H421.44599V74.873H423.8Z" fill="#231f20"/>
<path transform="matrix(1,0,0,-1,455.9868,105.240207)" d="M0 0C-1.047-1.41-2.688-2.232-4.345-2.232-5.787-2.232-7.118-1.684-8.092-.691-9.044 .275-9.565 1.57-9.565 2.957-9.565 4.328-9.073 5.615-8.181 6.582-7.244 7.596-5.938 8.154-4.504 8.154-2.772 8.154-1.063 7.25 0 5.85ZM.029 17.59V8.395L-.482 8.82C-1.69 9.82-3.188 10.35-4.813 10.35-6.098 10.35-7.295 10.041-8.275 9.455-9.359 8.811-10.269 7.893-10.906 6.797-11.572 5.648-11.924 4.32-11.924 2.957-11.924 .256-10.571-2.158-8.307-3.502-7.33-4.084-6.003-4.432-4.757-4.432-3.091-4.432-1.545-3.869-.401-2.848L.12-2.367V-4.121H2.39V17.59Z" fill="#231f20"/>
<path transform="matrix(1,0,0,-1,480.6226,98.8573)" d="M0 0C-.877 .584-3.111 1.541-3.111 1.541-5.463 2.533-7.664 3.467-7.664 5.547-7.664 7.693-5.669 8.816-3.696 8.816-2.33 8.816-.976 8.236 .195 7.34L1.646 9.244C.02 10.525-1.821 11.176-3.82 11.176-7.383 11.176-10.173 8.744-10.173 5.641-10.173 3.766-9.279 2.221-7.518 1.051-6.594 .449-4.467-.42-4.467-.42-2.064-1.416 .204-2.357 .204-4.869 .204-5.896-.245-6.832-1.061-7.506-1.836-8.137-2.859-8.482-3.942-8.482-6.455-8.482-8.264-7.029-9.34-5.812L-11.059-7.516C-9.184-9.658-6.597-10.842-3.785-10.842-1.977-10.842-.331-10.256 .849-9.188 2.071-8.08 2.717-6.555 2.717-4.777 2.717-2.799 1.803-1.191 0 0" fill="#231f20"/>
<path transform="matrix(1,0,0,-1,498.106,105.328)" d="M0 0C-1.168-1.439-2.628-2.172-4.335-2.172-5.798-2.172-7.124-1.66-8.067-.727-9.027 .209-9.555 1.537-9.555 3.016-9.555 5.977-7.391 8.211-4.519 8.211-2.403 8.211-1.021 6.902-.386 6.123L1.336 7.564C-.064 9.352-2.245 10.406-4.519 10.406-8.737 10.406-11.917 7.23-11.917 3.016-11.917 .984-11.154-.887-9.772-2.252-8.38-3.619-6.447-4.371-4.335-4.371-1.895-4.371 .577-3.145 1.813-1.316Z" fill="#231f20"/>
<path transform="matrix(1,0,0,-1,504.6401,88.0077)" d="M0 0C-.914 0-1.632-.725-1.632-1.654-1.632-2.566-.914-3.279 0-3.279 .929-3.279 1.653-2.566 1.653-1.654 1.653-.742 .912 0 0 0" fill="#231f20"/>
<path transform="matrix(1,0,0,-1,0,170.08)" d="M505.832 60.691H503.473V74.847H505.832Z" fill="#231f20"/>
<path transform="matrix(1,0,0,-1,539.6431,97.412)" d="M0 0C-1.242 1.582-3.112 2.49-5.131 2.49-7.395 2.49-8.837 1.342-9.351 .85L-9.882 .332V2.178H-12.148V-11.979H-9.79L-9.798-1.979C-9.104-1.143-7.531 .293-5.227 .293-3.93 .293-2.694-.295-1.923-1.277-1.432-1.885-.977-2.744-.977-4.904V-11.979H1.379V-5.057C1.379-2.744 .967-1.23 0 0" fill="#231f20"/>
<path transform="matrix(1,0,0,-1,556.064,105.300708)" d="M0 0C-1.168-1.441-2.627-2.176-4.335-2.176-5.798-2.176-7.124-1.66-8.066-.729-9.026 .207-9.554 1.537-9.554 3.014-9.554 5.977-7.389 8.211-4.518 8.211-2.403 8.211-1.02 6.9-.384 6.121L1.337 7.562C-.063 9.352-2.245 10.406-4.518 10.406-8.735 10.406-11.915 7.229-11.915 3.014-11.915 .982-11.154-.889-9.771-2.252-8.38-3.621-6.446-4.375-4.335-4.375-1.895-4.375 .577-3.145 1.815-1.318Z" fill="#231f20"/>
<path transform="matrix(1,0,0,-1,429.7271,100.777309)" d="M0 0 .12 .404C.644 2.424 2.474 3.838 4.572 3.838 6.506 3.838 8.317 2.354 8.78 .389L8.864 0ZM11.273-1.574C11.273 .465 10.589 2.346 9.346 3.713 8.094 5.072 6.365 5.82 4.48 5.82 .486 5.82-2.414 2.709-2.414-1.574-2.414-5.787 .737-8.965 4.915-8.965 8.235-8.965 10.068-7.279 10.714-6.539L9.205-5.105C8.375-5.977 7.136-6.98 4.949-6.98 3.627-6.98 2.379-6.49 1.437-5.6 .493-4.703-.086-3.57-.165-2.289L-.172-1.885H11.264C11.273-1.75 11.273-1.65 11.273-1.574" fill="#231f20"/>
<path transform="matrix(1,0,0,-1,512.3091,100.7421)" d="M0 0 .12 .406C.644 2.426 2.475 3.84 4.572 3.84 6.508 3.84 8.317 2.355 8.78 .391L8.863 0ZM11.273-1.572C11.273 .467 10.59 2.348 9.347 3.715 8.094 5.072 6.365 5.82 4.48 5.82 .486 5.82-2.414 2.713-2.414-1.572-2.414-5.785 .737-8.963 4.916-8.963 8.235-8.963 10.069-7.279 10.714-6.537L9.205-5.104C8.375-5.975 7.136-6.98 4.949-6.98 3.627-6.98 2.38-6.488 1.437-5.598 .493-4.701-.086-3.568-.165-2.287L-.172-1.885H11.264C11.273-1.75 11.273-1.648 11.273-1.572" fill="#231f20"/>
<path transform="matrix(1,0,0,-1,562.562,100.718708)" d="M0 0 .119 .406C.644 2.428 2.475 3.84 4.572 3.84 6.508 3.84 8.317 2.355 8.78 .391L8.864 0ZM11.273-1.572C11.273 .467 10.59 2.348 9.347 3.717 8.094 5.074 6.365 5.822 4.48 5.822 .486 5.822-2.415 2.713-2.415-1.572-2.415-5.785 .737-8.961 4.916-8.961 8.235-8.961 10.069-7.277 10.714-6.537L9.204-5.104C8.375-5.973 7.136-6.98 4.948-6.98 3.626-6.98 2.38-6.486 1.437-5.596 .493-4.701-.086-3.568-.164-2.287L-.172-1.885H11.264C11.273-1.748 11.273-1.646 11.273-1.572" fill="#231f20"/>
<path transform="matrix(1,0,0,-1,582.2202,101.0761)" d="M0 0C-1.667 .43-2.847 .816-2.847 2.004-2.847 3.258-1.641 4.139 .104 4.139 1.162 4.139 2.195 3.793 3.185 3.111L4.39 4.781C3.148 5.697 1.648 6.164-.087 6.164-2.577 6.164-5.251 4.811-5.251 1.844-5.251-.187-3.515-1.187-2.065-1.674-1.545-1.844-1.024-1.975-.529-2.109 1.154-2.539 2.742-2.941 2.742-4.455 2.742-5.797 1.292-6.592-.113-6.592-1.554-6.592-3.028-6.074-4.382-5.098L-5.602-6.824C-4.026-8.014-2.161-8.615-.052-8.615 1.335-8.615 2.638-8.205 3.601-7.471 4.606-6.682 5.145-5.619 5.145-4.391 5.145-1.687 2.542-.65 0 0" fill="#231f20"/>
<path transform="matrix(1,0,0,-1,266.145,101.082)" d="M0 0C-1.667 .43-2.846 .814-2.846 2.004-2.846 3.258-1.641 4.139 .104 4.139 1.162 4.139 2.195 3.793 3.185 3.109L4.39 4.781C3.15 5.697 1.648 6.164-.086 6.164-2.576 6.164-5.249 4.811-5.249 1.844-5.249-.186-3.514-1.187-2.065-1.674-1.545-1.844-1.024-1.975-.528-2.109 1.154-2.537 2.742-2.941 2.742-4.455 2.742-5.797 1.293-6.59-.112-6.59-1.553-6.59-3.027-6.074-4.382-5.1L-5.601-6.824C-4.025-8.012-2.161-8.617-.052-8.617 1.336-8.617 2.638-8.203 3.601-7.471 4.607-6.682 5.146-5.617 5.146-4.391 5.146-1.687 2.542-.65 0 0" fill="#231f20"/>
<path transform="matrix(1,0,0,-1,182.2271,59.275804)" d="M0 0H-8.522V-4.946H-2.097V-7.92H-8.522V-17.33H-11.94V2.971H0Z" fill="#231f20"/>
<path transform="matrix(1,0,0,-1,203.9995,76.6059)" d="M0 0H-3.216V9.41H-13.766V0H-16.973V20.301H-13.766V12.384H-3.216V20.301H0Z" fill="#231f20"/>
<path transform="matrix(1,0,0,-1,238.0103,76.6059)" d="M0 0H-3.423V12.443L-8.928 3.436H-11.384L-16.892 12.443V0H-20.31V20.301H-17.949L-10.152 7.489-2.36 20.301H0Z" fill="#231f20"/>
<path transform="matrix(1,0,0,-1,260.7983,68.102909)" d="M0 0C0-2.974-.845-5.172-2.591-6.731-4.068-8.051-6.279-8.804-8.662-8.804-11.03-8.804-13.241-8.049-14.727-6.729-16.471-5.171-17.312-2.972-17.312 .001V11.794H-13.896V-.299C-13.896-2.166-13.428-3.473-12.423-4.411-11.475-5.33-10.133-5.839-8.662-5.839-7.18-5.839-5.844-5.33-4.891-4.411-3.885-3.475-3.418-2.168-3.418-.301V11.792H0Z" fill="#231f20"/>
<path transform="matrix(1,0,0,-1,250.9106,51.9516)" d="M0 0C0-1.034-.838-1.872-1.872-1.872-2.906-1.872-3.745-1.034-3.745 0-3.745 1.034-2.906 1.873-1.872 1.873-.838 1.873 0 1.034 0 0" fill="#231f20"/>
<path transform="matrix(1,0,0,-1,257.1265,51.936006)" d="M0 0C0-1.034-.839-1.872-1.872-1.872-2.907-1.872-3.745-1.034-3.745 0-3.745 1.035-2.907 1.873-1.872 1.873-.839 1.873 0 1.035 0 0" fill="#231f20"/>
<path transform="matrix(1,0,0,-1,283.9292,76.602909)" d="M0 0H-2.391L-14.495 14.15V0H-17.909V20.3H-15.519L-3.414 6.14V20.3H0Z" fill="#231f20"/>
<path transform="matrix(1,0,0,-1,296.0728,64.6391)" d="M0 0C-1.989 .791-3.713 1.48-3.713 3.069-3.713 4.354-2.621 5.651-.188 5.651 1.066 5.651 2.413 5.177 3.375 4.424L5.099 6.879C3.414 8.065 1.615 8.616-.535 8.616-3.735 8.616-7.137 6.663-7.137 3.038-7.137 1.118-6.223-.349-4.328-1.445-3.475-1.947-2.53-2.322-1.616-2.678 .604-3.553 2.519-4.302 2.519-6.374 2.519-7.202 2.177-7.959 1.56-8.495 .95-9.023 .1-9.314-.84-9.314-2.591-9.314-4.419-8.508-5.77-7.153L-7.955-9.437C-5.83-11.295-3.369-12.279-.84-12.279 .958-12.279 2.644-11.688 3.921-10.608 5.221-9.5 5.936-7.976 5.936-6.313 5.936-2.359 2.644-1.05 0 0" fill="#231f20"/>
<path transform="matrix(1,0,0,-1,318.9546,59.2826)" d="M0 0H-5.524V-17.331H-8.948V0H-14.474V2.971H0Z" fill="#231f20"/>
<path transform="matrix(1,0,0,-1,334.7642,59.275804)" d="M0 0H-8.516V-4.946H-2.09V-7.92H-8.516V-14.36H.305V-17.33H-11.932V2.971H0Z" fill="#231f20"/>
<path transform="matrix(1,0,0,-1,342.813,64.373508)" d="M0 0V5.098H3.657C5.028 5.098 5.549 4.737 5.912 4.34 6.343 3.883 6.596 3.199 6.596 2.521 6.596 1.867 6.335 1.179 5.912 .726 5.437 .207 4.784 0 3.657 0ZM5.854-2.797 6.279-2.653C7.039-2.409 7.7-2.021 8.255-1.502 9.371-.441 10.011 1.03 10.011 2.55 10.011 4.062 9.371 5.542 8.255 6.604 7.157 7.603 5.77 8.068 3.896 8.068H-3.419V-12.232H0V-2.966H1.922L9.361-12.232H13.553Z" fill="#231f20"/>
</g>
</g>
</svg>
