<svg xmlns="http://www.w3.org/2000/svg" xmlns:xlink="http://www.w3.org/1999/xlink" version="1.1" width="219.601" height="48.1885" viewBox="0 0 219.601 48.1885">
<defs>
<clipPath id="clip_0">
<path transform="matrix(1,0,0,-1,0,48.1885)" d="M0 48.188H219.601V0H0Z"/>
</clipPath>
</defs>
<g id="layer_1" data-name="Ebene 1">
<path transform="matrix(1,0,0,-1,46.335,18.4156)" d="M0 0H2.001V.907H0V2.393H2.61V3.3H-.95V-2.871H0Z" fill="#231f20"/>
<g clip-path="url(#clip_0)">
<path transform="matrix(1,0,0,-1,52.2725,18.4156)" d="M0 0C.589 0 .815-.145 .972-.301 1.149-.487 1.247-.728 1.247-.978 1.247-1.233 1.149-1.477 .972-1.663 .815-1.819 .589-1.964 0-1.964H-1.283V0ZM.526 1.146C.416 1.021 .242 .907-.278 .907H-1.283V2.393H-.278C.242 2.393 .416 2.278 .527 2.153 .657 2.015 .726 1.841 .726 1.65 .726 1.459 .657 1.285 .526 1.146M1.513-2.453C1.948-2.102 2.197-1.576 2.197-1.013 2.197-.357 1.809 .282 1.225 .599 1.508 .885 1.676 1.284 1.676 1.676 1.676 2.129 1.486 2.562 1.157 2.863 .83 3.161 .423 3.3-.122 3.3H-2.233V-2.871H.156C.739-2.871 1.171-2.738 1.513-2.453" fill="#231f20"/>
<path transform="matrix(1,0,0,-1,63.1329,21.2866)" d="M0 0H.95V6.171H.279L-2.048 2.49-4.363 6.152-4.375 6.171H-5.046V0H-4.096V4.001L-2.374 1.306H-1.722L0 4.001Z" fill="#231f20"/>
<path transform="matrix(1,0,0,-1,68.5528,19.9546)" d="M0 0C-.264-.348-.668-.556-1.082-.556-1.82-.556-2.399 .018-2.399 .753-2.399 1.499-1.852 2.061-1.126 2.061-.691 2.061-.271 1.854 0 1.505ZM.026-1.004V-1.332H.907V2.838H.026V2.508C-.323 2.784-.74 2.925-1.213 2.925-1.587 2.925-1.939 2.832-2.233 2.658-2.905 2.261-3.306 1.549-3.306 .753-3.306-.041-2.908-.75-2.242-1.144-1.952-1.316-1.561-1.419-1.195-1.419-.735-1.419-.306-1.273 .026-1.004" fill="#231f20"/>
<path transform="matrix(1,0,0,-1,72.2745,18.7456)" d="M0 0C-.424 .108-.701 .197-.701 .439-.701 .766-.338 .913-.001 .913 .291 .913 .579 .808 .854 .6L.886 .575 1.358 1.23 1.329 1.254C.951 1.561 .486 1.716-.054 1.716-.802 1.716-1.607 1.303-1.607 .396-1.607-.107-1.273-.483-.641-.694-.495-.742-.348-.78-.204-.817 .233-.93 .611-1.026 .611-1.353 .611-1.648 .268-1.825-.062-1.825-.462-1.825-.871-1.672-1.247-1.382L-1.28-1.355-1.752-2.03-1.723-2.054C-1.251-2.435-.687-2.628-.045-2.628 .713-2.628 1.518-2.175 1.518-1.335 1.518-.502 .751-.192 0 0" fill="#231f20"/>
<path transform="matrix(1,0,0,-1,76.8321,21.3736)" d="M0 0C.758 0 1.502 .393 1.852 .977L1.871 1.008 1.175 1.514 1.151 1.482C.843 1.071 .455 .863 0 .863-.775 .863-1.317 1.401-1.317 2.172-1.317 2.918-.773 3.48-.053 3.48 .525 3.48 .884 3.104 1.046 2.879L1.071 2.844 1.742 3.409 1.72 3.439C1.311 4.005 .649 4.344-.053 4.344-1.291 4.344-2.225 3.41-2.225 2.172-2.225 .934-1.269 0 0 0" fill="#231f20"/>
<path transform="matrix(1,0,0,-1,82.7246,21.2866)" d="M0 0H.907V2.041C.907 2.714 .785 3.156 .498 3.52 .131 3.987-.423 4.257-1.02 4.257-1.562 4.257-1.962 4.025-2.182 3.856V6.258H-3.088V0H-2.182V2.836C-2.003 3.049-1.625 3.393-1.047 3.393-.727 3.393-.424 3.25-.234 3.008-.112 2.857 0 2.642 0 2.085Z" fill="#231f20"/>
<path transform="matrix(1,0,0,-1,0,48.1885)" d="M85.013 26.902H85.92V31.072H85.013Z" fill="#231f20"/>
<path transform="matrix(1,0,0,-1,85.462,16.283699)" d="M0 0C.33 0 .588 .255 .588 .579 .588 .903 .324 1.168 0 1.168-.325 1.168-.579 .909-.579 .579-.579 .255-.325 0 0 0" fill="#231f20"/>
<path transform="matrix(1,0,0,-1,88.295,18.450699)" d="M0 0C.179 .213 .557 .558 1.135 .558 1.453 .558 1.758 .414 1.947 .172 2.069 .021 2.182-.194 2.182-.751V-2.836H3.087V-.795C3.087-.122 2.966 .32 2.68 .684 2.313 1.151 1.758 1.421 1.16 1.421 .569 1.421 .167 1.156-.026 .992V1.334H-.907V-2.836H0Z" fill="#231f20"/>
<path transform="matrix(1,0,0,-1,93.3804,18.6402)" d="M0 0C.148 .479 .592 .808 1.094 .808 1.557 .808 1.99 .464 2.121 0ZM1.068 1.61C-.109 1.61-.965 .696-.965-.561-.965-1.8-.037-2.733 1.189-2.733 2.225-2.733 2.762-2.188 2.945-1.952L2.967-1.924 2.371-1.357 2.344-1.388C2.102-1.656 1.777-1.931 1.199-1.931 .537-1.931-.018-1.427-.08-.775H3.063L3.066-.74C3.074-.66 3.074-.596 3.074-.561 3.074 .677 2.213 1.61 1.068 1.61" fill="#231f20"/>
<path transform="matrix(1,0,0,-1,100.4292,18.2788)" d="M0 0C.123-.15 .234-.366 .234-.923V-3.008H1.143V-.967C1.143-.294 1.02 .148 .732 .512 .365 .98-.187 1.249-.787 1.249-1.377 1.249-1.779 .984-1.973 .82V1.162H-2.854V-3.008H-1.947V-.172C-1.768 .041-1.391 .386-.812 .386-.492 .386-.189 .242 0 0" fill="#231f20"/>
<path transform="matrix(1,0,0,-1,103.8589,18.4497)" d="M0 0C.271 .349 .691 .557 1.125 .557 1.852 .557 2.398-.006 2.398-.752 2.398-1.486 1.82-2.061 1.082-2.061 .668-2.061 .264-1.853 0-1.505ZM2.234 1.153C1.939 1.327 1.586 1.42 1.213 1.42 .762 1.42 .344 1.281 0 1.018V3.421H-.906V-2.837H-.025V-2.509C.305-2.777 .736-2.924 1.195-2.924 1.561-2.924 1.951-2.821 2.242-2.648 2.908-2.255 3.307-1.546 3.307-.752 3.307 .044 2.904 .756 2.234 1.153" fill="#231f20"/>
<path transform="matrix(1,0,0,-1,110.1617,20.5103)" d="M0 0C-.74 0-1.318 .574-1.318 1.309-1.318 2.055-.77 2.617-.045 2.617 .391 2.617 .811 2.409 1.082 2.061V.556C.816 .208 .414 0 0 0M1.107-.776H1.988V3.394H1.107V3.063C.758 3.34 .342 3.48-.131 3.48-.506 3.48-.857 3.388-1.152 3.214-1.824 2.816-2.225 2.104-2.225 1.309-2.225 .515-1.826-.194-1.16-.588-.871-.761-.479-.863-.113-.863 .346-.863 .775-.717 1.107-.448Z" fill="#231f20"/>
<path transform="matrix(1,0,0,-1,116.5328,19.9527)" d="M0 0C-.152-.177-.545-.558-1.107-.558-1.404-.558-1.689-.43-1.869-.215-2.027-.029-2.096 .208-2.096 .577V2.836H-3.002V.707C-3.002 .041-2.887-.386-2.619-.719-2.264-1.165-1.723-1.421-1.135-1.421-.617-1.421-.189-1.184 .025-1.008V-1.334H.906V2.836H0Z" fill="#231f20"/>
<path transform="matrix(1,0,0,-1,46.0371,25.4522)" d="M0 0H1.102C1.907 0 2.462-.152 2.9-.494 3.486-.953 3.822-1.67 3.822-2.459 3.822-3.25 3.486-3.967 2.9-4.426 2.462-4.768 1.907-4.92 1.102-4.92H0ZM3.278 .084C2.73 .485 2.047 .675 1.128 .675H-.702V-5.596H1.128C2.047-5.596 2.73-5.406 3.278-5.004 4.059-4.422 4.525-3.473 4.525-2.459 4.525-1.447 4.059-.498 3.278 .084" fill="#231f20"/>
<path transform="matrix(1,0,0,-1,52.0821,28.4737)" d="M0 0C.175 .617 .659 1.012 1.26 1.012 1.859 1.012 2.349 .6 2.483 0ZM1.26 1.66C.127 1.66-.727 .732-.727-.5-.727-1.752 .149-2.66 1.355-2.66 2.034-2.66 2.666-2.375 3.045-1.896L3.096-1.832 2.617-1.377 2.557-1.451C2.258-1.818 1.842-2.01 1.355-2.01 .472-2.01 .019-1.314-.045-.633H3.176L3.185-.553C3.194-.471 3.194-.404 3.194-.369 3.194 .787 2.363 1.66 1.26 1.66" fill="#231f20"/>
<path transform="matrix(1,0,0,-1,58.5098,30.4834)" d="M0 0C-.532 0-1.027 .299-1.328 .803V2.285C-1.139 2.588-.641 3.022 .009 3.022 .331 3.022 .659 2.904 .908 2.701 1.241 2.428 1.433 1.992 1.433 1.51 1.433 .998 1.213 .537 .845 .279 .576 .094 .291 0 0 0M1.336 3.207C.975 3.502 .494 3.67 .018 3.67-.494 3.67-.98 3.488-1.346 3.162V3.584H-2.004V-2.652H-1.328V-.143C-.992-.469-.523-.65-.009-.65 .446-.65 .862-.52 1.227-.26 1.787 .133 2.108 .777 2.108 1.51 2.108 2.172 1.827 2.791 1.336 3.207" fill="#231f20"/>
<path transform="matrix(1,0,0,-1,65.0225,28.1983)" d="M0 0V-1.482C-.301-1.986-.796-2.285-1.328-2.285-1.619-2.285-1.903-2.191-2.172-2.006-2.54-1.748-2.761-1.287-2.761-.775-2.761-.293-2.569 .143-2.236 .416-1.987 .619-1.659 .736-1.337 .736-.687 .736-.189 .303 0 0M.018 .877C-.348 1.203-.833 1.385-1.345 1.385-1.821 1.385-2.302 1.217-2.665 .92-3.155 .506-3.437-.113-3.437-.775-3.437-1.508-3.114-2.152-2.555-2.545-2.189-2.805-1.774-2.936-1.319-2.936-.799-2.936-.316-2.746 .018-2.416V-2.85H.677V1.299H.018Z" fill="#231f20"/>
<path transform="matrix(1,0,0,-1,69.1153,26.8135)" d="M0 0C-.495 0-.908-.205-1.163-.451V-.086H-1.84V-4.234H-1.163V-1.455C-.96-.973-.498-.648-.009-.648 .12-.648 .189-.652 .211-.656L.301-.672 .397-.033 .31-.018C.249-.008 .066 0 0 0" fill="#231f20"/>
<path transform="matrix(1,0,0,-1,73.1436,30.4366)" d="M0 0C-.108-.031-.246-.047-.401-.047-.66-.047-.864 .037-.992 .197-1.072 .297-1.146 .439-1.146 .803V2.887H.202V3.537H-1.146V4.615H-1.822V3.537H-2.936V2.887H-1.822V.818C-1.822 .357-1.733 .039-1.533-.211-1.196-.635-.68-.697-.401-.697-.242-.697-.006-.672 .141-.623L.216-.598 .095 .029Z" fill="#231f20"/>
<path transform="matrix(1,0,0,-1,79.6153,26.8135)" d="M0 0C-.765 0-1.256-.396-1.549-.771-1.867-.285-2.416 0-3.045 0-3.516 0-3.975-.18-4.295-.482V-.086H-4.953V-4.234H-4.277V-1.408C-4.025-.947-3.544-.648-3.045-.648-2.661-.648-2.323-.824-2.119-1.131-1.992-1.32-1.908-1.561-1.908-2.107V-4.234H-1.232V-2.047C-1.232-1.854-1.246-1.664-1.273-1.496-1.053-1.082-.607-.648 0-.648 .385-.648 .722-.824 .926-1.131 1.053-1.32 1.137-1.561 1.137-2.107V-4.234H1.813V-2.047C1.813-1.545 1.739-1.195 1.566-.881 1.253-.328 .667 0 0 0" fill="#231f20"/>
<path transform="matrix(1,0,0,-1,83.2969,28.4737)" d="M0 0C.175 .617 .659 1.012 1.26 1.012 1.859 1.012 2.349 .6 2.483 0ZM1.26 1.66C.127 1.66-.727 .732-.727-.5-.727-1.752 .149-2.66 1.355-2.66 2.034-2.66 2.666-2.375 3.045-1.896L3.096-1.832 2.617-1.377 2.557-1.451C2.258-1.818 1.842-2.01 1.355-2.01 .472-2.01 .02-1.314-.045-.633H3.176L3.186-.553C3.194-.471 3.194-.404 3.194-.369 3.194 .787 2.363 1.66 1.26 1.66" fill="#231f20"/>
<path transform="matrix(1,0,0,-1,89.6895,26.8135)" d="M0 0C-.518 0-.982-.178-1.311-.496V-.086H-1.969V-4.234H-1.293V-1.41C-1.002-.926-.535-.648-.008-.648 .389-.648 .739-.828 .953-1.141 1.062-1.299 1.163-1.518 1.163-2.064V-4.234H1.839V-2.029C1.839-1.322 1.697-.988 1.482-.705 1.15-.256 .61 0 0 0" fill="#231f20"/>
<path transform="matrix(1,0,0,-1,95.2144,30.4366)" d="M0 0C-.107-.031-.246-.047-.4-.047-.658-.047-.863 .037-.99 .197-1.07 .297-1.145 .439-1.145 .803V2.887H.203V3.537H-1.145V4.615H-1.822V3.537H-2.936V2.887H-1.822V.818C-1.822 .357-1.732 .039-1.531-.211-1.195-.635-.678-.697-.4-.697-.242-.697-.004-.672 .143-.623L.217-.598 .096 .029Z" fill="#231f20"/>
<path transform="matrix(1,0,0,-1,101.148,30.4834)" d="M0 0C-.832 0-1.459 .648-1.459 1.51-1.459 2.371-.832 3.022 0 3.022 .832 3.022 1.459 2.371 1.459 1.51 1.459 .648 .832 0 0 0M0 3.67C-1.197 3.67-2.135 2.721-2.135 1.51-2.135 .299-1.197-.65 0-.65 1.197-.65 2.135 .299 2.135 1.51 2.135 2.721 1.197 3.67 0 3.67" fill="#231f20"/>
<path transform="matrix(1,0,0,-1,105.771,25.586899)" d="M0 0C.152 .219 .395 .333 .701 .333 .809 .333 .893 .323 .973 .302L1.066 .277 1.199 .919 1.111 .938C.971 .968 .836 .983 .709 .983 .217 .983-.209 .798-.49 .464-.734 .17-.842-.221-.842-.803V-1.312H-1.869V-1.963H-.842V-5.461H-.166V-1.963H1.182V-1.312H-.166V-.777C-.166-.332-.105-.156 0 0" fill="#231f20"/>
<path transform="matrix(1,0,0,-1,113.4839,28.876)" d="M0 0-2.445 4.099H-2.936V-2.172H-2.232V2.412L-.225-.953H.225L2.232 2.412V-2.172H2.936V4.099H2.445Z" fill="#231f20"/>
<path transform="matrix(1,0,0,-1,118.4195,28.4737)" d="M0 0C.174 .617 .658 1.012 1.26 1.012 1.857 1.012 2.348 .6 2.482 0ZM1.26 1.66C.127 1.66-.729 .732-.729-.5-.729-1.752 .148-2.66 1.355-2.66 2.033-2.66 2.664-2.375 3.043-1.896L3.094-1.832 2.617-1.377 2.555-1.451C2.256-1.818 1.842-2.01 1.355-2.01 .471-2.01 .018-1.314-.045-.633H3.176L3.184-.553C3.193-.471 3.193-.404 3.193-.369 3.193 .787 2.361 1.66 1.26 1.66" fill="#231f20"/>
<path transform="matrix(1,0,0,-1,125.9468,29.9639)" d="M0 0C-.324-.34-.723-.52-1.152-.52-2.016-.52-2.689 .143-2.689 .99-2.689 1.824-2.031 2.502-1.223 2.502-.801 2.502-.408 2.336-.084 2.021L-.018 1.957 .414 2.447 .355 2.508C-.072 2.934-.604 3.15-1.223 3.15-2.424 3.15-3.365 2.201-3.365 .99-3.365-.057-2.588-1.17-1.145-1.17-.518-1.17 .078-.908 .488-.453L.549-.387 .061 .065Z" fill="#231f20"/>
<path transform="matrix(1,0,0,-1,129.5269,26.8135)" d="M0 0C-.51 0-.977-.172-1.293-.473V2.122H-1.969V-4.234H-1.293V-1.41C-1.002-.926-.535-.648-.01-.648 .389-.648 .738-.828 .953-1.141 1.062-1.299 1.162-1.518 1.162-2.064V-4.234H1.838V-2.029C1.838-1.322 1.695-.988 1.482-.705 1.148-.256 .609 0 0 0" fill="#231f20"/>
<path transform="matrix(1,0,0,-1,135.9449,28.1983)" d="M0 0V-1.482C-.303-1.986-.797-2.285-1.328-2.285-1.621-2.285-1.904-2.191-2.174-2.006-2.541-1.748-2.762-1.287-2.762-.775-2.762-.293-2.57 .143-2.238 .416-1.988 .619-1.66 .736-1.338 .736-.689 .736-.189 .303 0 0M.018 .877C-.35 1.203-.834 1.385-1.346 1.385-1.822 1.385-2.303 1.217-2.666 .92-3.156 .506-3.438-.113-3.438-.775-3.438-1.508-3.115-2.152-2.555-2.545-2.191-2.805-1.775-2.936-1.32-2.936-.801-2.936-.316-2.746 .018-2.416V-2.85H.676V1.299H.018Z" fill="#231f20"/>
<path transform="matrix(1,0,0,-1,140.1656,26.8135)" d="M0 0C-.518 0-.983-.178-1.311-.496V-.086H-1.969V-4.234H-1.293V-1.41C-1.002-.926-.535-.648-.008-.648 .389-.648 .74-.828 .953-1.141 1.062-1.299 1.164-1.518 1.164-2.064V-4.234H1.84V-2.029C1.84-1.322 1.697-.988 1.482-.705 1.15-.256 .611 0 0 0" fill="#231f20"/>
<path transform="matrix(1,0,0,-1,0,48.1885)" d="M143.496 17.141H144.172V21.289002H143.496Z" fill="#231f20"/>
<path transform="matrix(1,0,0,-1,143.8296,25.0821)" d="M0 0C-.291 0-.525-.239-.525-.532-.525-.827-.295-1.058 0-1.058 .293-1.058 .533-.823 .533-.532 .533-.239 .293 0 0 0" fill="#231f20"/>
<path transform="matrix(1,0,0,-1,148.8101,29.9639)" d="M0 0C-.324-.34-.723-.52-1.152-.52-2.016-.52-2.689 .143-2.689 .99-2.689 1.824-2.031 2.502-1.223 2.502-.801 2.502-.408 2.336-.084 2.021L-.018 1.957 .414 2.447 .356 2.508C-.072 2.934-.604 3.15-1.223 3.15-2.424 3.15-3.365 2.201-3.365 .99-3.365-.057-2.588-1.17-1.144-1.17-.518-1.17 .078-.908 .488-.453L.549-.387 .061 .065Z" fill="#231f20"/>
<path transform="matrix(1,0,0,-1,153.5093,28.1983)" d="M0 0V-1.482C-.301-1.986-.797-2.285-1.328-2.285-1.619-2.285-1.904-2.191-2.172-2.006-2.541-1.748-2.762-1.287-2.762-.775-2.762-.293-2.57 .143-2.238 .416-1.988 .619-1.66 .736-1.338 .736-.688 .736-.189 .303 0 0M.018 .877C-.348 1.203-.834 1.385-1.346 1.385-1.822 1.385-2.303 1.217-2.666 .92-3.156 .506-3.438-.113-3.438-.775-3.438-1.508-3.115-2.152-2.555-2.545-2.191-2.805-1.775-2.936-1.32-2.936-.799-2.936-.316-2.746 .018-2.416V-2.85H.676V1.299H.018Z" fill="#231f20"/>
<path transform="matrix(1,0,0,-1,0,48.1885)" d="M155.761 17.141H156.439V23.498002H155.761Z" fill="#231f20"/>
<path transform="matrix(1,0,0,-1,161.3882,27.9326)" d="M0 0H2.176V.676H0V2.48H2.785V3.155H-.701V-3.115H2.871V-2.439H0Z" fill="#231f20"/>
<path transform="matrix(1,0,0,-1,167.4136,26.8135)" d="M0 0C-.518 0-.982-.178-1.311-.496V-.086H-1.969V-4.234H-1.293V-1.41C-1.002-.926-.535-.648-.008-.648 .389-.648 .74-.828 .953-1.141 1.062-1.299 1.164-1.518 1.164-2.064V-4.234H1.84V-2.029C1.84-1.322 1.697-.988 1.482-.705 1.15-.256 .609 0 0 0" fill="#231f20"/>
<path transform="matrix(1,0,0,-1,173.8316,28.1983)" d="M0 0V-1.482C-.301-1.986-.795-2.285-1.328-2.285-1.619-2.285-1.904-2.191-2.172-2.006-2.541-1.748-2.76-1.287-2.76-.775-2.76-.293-2.57 .143-2.236 .416-1.986 .619-1.658 .736-1.336 .736-.687 .736-.189 .303 0 0M.018 .877C-.348 1.203-.834 1.385-1.346 1.385-1.822 1.385-2.303 1.217-2.664 .92-3.154 .506-3.436-.113-3.436-.775-3.436-1.508-3.115-2.152-2.555-2.545-2.189-2.805-1.773-2.936-1.318-2.936-.805-2.936-.336-2.754 0-2.428V-2.76C0-3.27-.039-3.527-.146-3.744-.293-4.031-.621-4.375-1.346-4.375-1.916-4.375-2.393-4.117-2.688-3.65L-2.738-3.568-3.277-3.965-3.23-4.035C-2.811-4.664-2.127-5.023-1.354-5.023-.521-5.023 .119-4.684 .449-4.062 .613-3.752 .676-3.381 .676-2.742V1.299H.018Z" fill="#231f20"/>
<path transform="matrix(1,0,0,-1,0,48.1885)" d="M176.085 17.141H176.761V21.289002H176.085Z" fill="#231f20"/>
<path transform="matrix(1,0,0,-1,176.4195,25.0821)" d="M0 0C-.291 0-.525-.239-.525-.532-.525-.827-.295-1.058 0-1.058 .293-1.058 .533-.823 .533-.532 .533-.239 .293 0 0 0" fill="#231f20"/>
<path transform="matrix(1,0,0,-1,180.3081,26.8135)" d="M0 0C-.518 0-.982-.178-1.311-.496V-.086H-1.971V-4.234H-1.295V-1.41C-1.004-.926-.537-.648-.01-.648 .387-.648 .738-.828 .951-1.141 1.061-1.299 1.162-1.518 1.162-2.064V-4.234H1.838V-2.029C1.838-1.322 1.695-.988 1.48-.705 1.148-.256 .609 0 0 0" fill="#231f20"/>
<path transform="matrix(1,0,0,-1,184.0152,28.4737)" d="M0 0C.176 .617 .66 1.012 1.26 1.012 1.859 1.012 2.35 .6 2.482 0ZM1.26 1.66C.127 1.66-.727 .732-.727-.5-.727-1.752 .148-2.66 1.355-2.66 2.035-2.66 2.666-2.375 3.045-1.896L3.096-1.832 2.617-1.377 2.557-1.451C2.258-1.818 1.842-2.01 1.355-2.01 .471-2.01 .02-1.314-.045-.633H3.176L3.186-.553C3.195-.471 3.195-.404 3.195-.369 3.195 .787 2.363 1.66 1.26 1.66" fill="#231f20"/>
<path transform="matrix(1,0,0,-1,188.8609,28.4737)" d="M0 0C.176 .617 .66 1.012 1.26 1.012 1.859 1.012 2.35 .6 2.482 0ZM1.26 1.66C.127 1.66-.727 .732-.727-.5-.727-1.752 .148-2.66 1.355-2.66 2.035-2.66 2.666-2.375 3.045-1.896L3.096-1.832 2.617-1.377 2.557-1.451C2.258-1.818 1.842-2.01 1.355-2.01 .471-2.01 .02-1.314-.045-.633H3.176L3.186-.553C3.195-.471 3.195-.404 3.195-.369 3.195 .787 2.363 1.66 1.26 1.66" fill="#231f20"/>
<path transform="matrix(1,0,0,-1,195.1226,26.8135)" d="M0 0C-.494 0-.906-.205-1.162-.451V-.086H-1.838V-4.234H-1.162V-1.455C-.959-.973-.496-.648-.008-.648 .121-.648 .189-.652 .213-.656L.303-.672 .398-.033 .311-.018C.25-.008 .068 0 0 0" fill="#231f20"/>
<path transform="matrix(1,0,0,-1,196.941,25.0821)" d="M0 0C-.289 0-.525-.239-.525-.532-.525-.827-.295-1.058 0-1.058 .295-1.058 .533-.823 .533-.532 .533-.239 .295 0 0 0" fill="#231f20"/>
<path transform="matrix(1,0,0,-1,0,48.1885)" d="M196.607 17.141H197.28299V21.289002H196.607Z" fill="#231f20"/>
<path transform="matrix(1,0,0,-1,200.8296,26.8135)" d="M0 0C-.518 0-.982-.178-1.311-.496V-.086H-1.969V-4.234H-1.293V-1.41C-1.002-.926-.535-.648-.008-.648 .389-.648 .738-.828 .953-1.141 1.062-1.299 1.164-1.518 1.164-2.064V-4.234H1.84V-2.029C1.84-1.322 1.697-.988 1.482-.705 1.15-.256 .609 0 0 0" fill="#231f20"/>
<path transform="matrix(1,0,0,-1,207.2476,28.1983)" d="M0 0V-1.482C-.301-1.986-.795-2.285-1.328-2.285-1.619-2.285-1.904-2.191-2.172-2.006-2.541-1.748-2.76-1.287-2.76-.775-2.76-.293-2.57 .143-2.236 .416-1.986 .619-1.658 .736-1.336 .736-.687 .736-.189 .303 0 0M.018 1.299V.877C-.348 1.203-.834 1.385-1.346 1.385-1.822 1.385-2.303 1.217-2.664 .92-3.154 .506-3.436-.113-3.436-.775-3.436-1.508-3.115-2.152-2.555-2.545-2.189-2.805-1.773-2.936-1.318-2.936-.805-2.936-.336-2.754 0-2.428V-2.76C0-3.27-.039-3.527-.146-3.744-.293-4.031-.621-4.375-1.346-4.375-1.916-4.375-2.393-4.117-2.688-3.65L-2.738-3.568-3.277-3.965-3.23-4.035C-2.811-4.664-2.127-5.023-1.354-5.023-.521-5.023 .119-4.684 .449-4.062 .613-3.752 .676-3.381 .676-2.742V1.299Z" fill="#231f20"/>
<path transform="matrix(1,0,0,-1,17.4522,24.117199)" d="M0 0 4.208 6.913H5.775V-4.636H3.548V1.797L.775-2.739H-.775L-3.547 1.797V-4.636H-5.774V6.913H-4.207Z" fill="#939598"/>
<path transform="matrix(1,0,0,-1,30.3897,26.7725)" d="M0 0C.775 0 1.204 .197 1.484 .51 1.749 .791 1.897 1.154 1.897 1.565 1.897 1.978 1.749 2.341 1.484 2.622 1.204 2.935 .775 3.133 0 3.133H-2.228V0ZM-2.228 5.113H-.66C.033 5.113 .347 5.278 .577 5.525 .775 5.74 .907 6.037 .907 6.35 .907 6.664 .775 6.96 .577 7.175 .347 7.423 .033 7.587-.66 7.587H-2.228ZM-.528 9.568C.775 9.568 1.501 9.254 2.063 8.759 2.706 8.199 3.135 7.374 3.135 6.433 3.135 5.674 2.771 4.898 2.393 4.503 3.415 3.991 4.125 2.837 4.125 1.55 4.125 .576 3.712-.314 3.068-.941 2.426-1.584 1.534-1.98 .05-1.98H-4.455V9.568Z" fill="#939598"/>
</g>
</g>
</svg>
